<?xml version="1.0" encoding="utf-8"?>
<!-- Generator: Adobe Illustrator 15.0.0, SVG Export Plug-In . SVG Version: 6.00 Build 0)  -->
<!DOCTYPE svg PUBLIC "-//W3C//DTD SVG 1.1//EN" "http://www.w3.org/Graphics/SVG/1.1/DTD/svg11.dtd">
<svg version="1.1" id="Layer_1" xmlns="http://www.w3.org/2000/svg" xmlns:xlink="http://www.w3.org/1999/xlink" x="0px" y="0px"
	 width="auto" height="auto" viewBox="0 0 50 50" enable-background="new 0 0 50 50" xml:space="preserve">
<g>
	<polygon fill="#333333" points="32.223,50.171 17.423,50.171 19.249,43.908 30.396,43.908 	"/>
</g>
<polyline fill="none" stroke="#333333" stroke-width="2" stroke-miterlimit="10" points="44.056,13.892 48.312,13.892 
	48.312,43.761 1.334,43.761 1.334,13.892 6.048,13.892 "/>
<path fill="#333333" d="M35.135,15.752c-5.953,0-10.8,4.844-10.8,10.802v3.307v0.506v5.31c0,0.432,0.347,0.778,0.777,0.778h4.042
	c0.431,0,0.776-0.347,0.776-0.778v-5.815c0-0.432-0.346-0.778-0.776-0.778h-2.006v-2.528c0-4.408,3.582-7.991,7.987-7.991
	s7.991,3.583,7.991,7.991v2.532h-2.012c-0.426,0-0.773,0.347-0.773,0.774v5.815c0,0.432,0.348,0.778,0.773,0.778h1.607
	c-0.369,0.893-1.245,1.521-2.267,1.521h-3.044c-0.581,0-1.056,0.474-1.056,1.055c0,0.582,0.475,1.058,1.056,1.058h3.044
	c2.196,0,4.034-1.56,4.469-3.629h0.238c0.429,0,0.775-0.349,0.775-0.78v-5.312v-0.502v-3.311
	C45.938,20.597,41.092,15.752,35.135,15.752z"/>
<g>
	<polyline fill="none" stroke="#333333" stroke-width="2" stroke-miterlimit="10" points="21.366,22.369 14.625,22.369 8.349,26.72 
		8.349,22.369 8.349,1.251 37.186,1.251 37.186,12.31 	"/>
	<circle fill="#333333" cx="15.72" cy="12.31" r="1.844"/>
	<circle fill="#333333" cx="22.489" cy="12.31" r="1.844"/>
	<path fill="#333333" d="M29.26,10.466c1.02,0,1.846,0.826,1.846,1.843c0,1.019-0.826,1.844-1.846,1.844
		c-1.016,0-1.843-0.825-1.843-1.844C27.417,11.292,28.244,10.466,29.26,10.466z"/>
</g>
<line fill="none" stroke="#333333" stroke-width="2" stroke-miterlimit="10" x1="12.124" y1="32.48" x2="20.647" y2="32.48"/>
<line fill="none" stroke="#333333" stroke-width="2" stroke-miterlimit="10" x1="7.707" y1="32.48" x2="10.491" y2="32.48"/>
<line fill="none" stroke="#333333" stroke-width="2" stroke-miterlimit="10" x1="18.749" y1="37.378" x2="20.647" y2="37.378"/>
<line fill="none" stroke="#333333" stroke-width="2" stroke-miterlimit="10" x1="13.756" y1="37.378" x2="17.423" y2="37.378"/>
<line fill="none" stroke="#333333" stroke-width="2" stroke-miterlimit="10" x1="7.707" y1="37.378" x2="11.931" y2="37.378"/>
</svg>
